<svg height="512pt" viewBox="0 -3 512 511" width="512pt" xmlns="http://www.w3.org/2000/svg"><path d="m198.75 465.746094c-.648438 0-1.3125-.070313-1.949219-.199219-.640625-.128906-1.269531-.320313-1.871093-.570313-.609376-.25-1.1875-.558593-1.730469-.917968-.550781-.363282-1.058594-.78125-1.519531-1.242188-.460938-.460937-.878907-.96875-1.238282-1.519531-.359375-.539063-.671875-1.121094-.921875-1.730469-.25-.597656-.449219-1.230468-.578125-1.871094-.132812-.636718-.191406-1.296874-.191406-1.949218 0-.648438.0625-1.308594.191406-1.960938.128906-.628906.328125-1.257812.578125-1.871094.25-.597656.5625-1.179687.921875-1.71875.359375-.550781.777344-1.058593 1.238282-1.519531.460937-.460937.96875-.878906 1.519531-1.25.539062-.359375 1.121093-.660156 1.730469-.910156.601562-.25 1.230468-.449219 1.871093-.578125 3.25-.652344 6.699219.417969 9.019531 2.738281.460938.460938.878907.96875 1.238282 1.519531.371094.539063.671875 1.121094.921875 1.71875.25.613282.449219 1.242188.578125 1.871094.132812.652344.191406 1.3125.191406 1.960938 0 .652344-.0625 1.3125-.191406 1.949218-.128906.640626-.328125 1.273438-.578125 1.871094-.25.609375-.550781 1.191406-.921875 1.730469-.359375.550781-.777344 1.058594-1.238282 1.519531-1.859374 1.859375-4.441406 2.929688-7.070312 2.929688zm0 0"/><path d="m498.449219 109.671875h-254.433594c-5.523437 0-10-4.476563-10-10 0-34.152344 28.261719-61.875 62.65625-60.863281 14.5-23.792969 40.097656-38.308594 68.328125-38.308594 23.132812 0 45.183594 10.132812 60.308594 27.414062 5.269531-1.296874 10.683594-1.953124 16.175781-1.953124 37.128906 0 67.332031 30.1875 67.332031 67.300781 0 2.4375-.140625 4.96875-.425781 7.515625-.566406 5.066406-4.84375 8.894531-9.941406 8.894531zm-243.199219-20h233.433594c-1.84375-24.410156-22.308594-43.710937-47.199219-43.710937-5.605469 0-11.09375.96875-16.308594 2.878906-4.195312 1.539062-8.90625.105468-11.535156-3.511719-11.289063-15.546875-29.46875-24.828125-48.640625-24.828125-22.921875 0-43.527344 12.753906-53.773438 33.28125-1.925781 3.859375-6.121093 6.050781-10.378906 5.433594-1.980468-.289063-3.972656-.433594-5.914062-.433594-19.113282 0-35.207032 13.164062-39.683594 30.890625zm0 0"/><path d="m508.171875 453.242188c0-.003907-.003906-.007813-.003906-.011719-7.300781-28.238281-24.285157-52.246094-47.28125-68.417969 6.164062-1.355469 11.351562-5.472656 14.09375-11.410156 3.390625-7.332032 2.242187-15.710938-2.996094-21.859375l-31.160156-36.605469c6.011719-1.453125 11.042969-5.546875 13.714843-11.394531 3.371094-7.382813 2.164063-15.78125-3.152343-21.917969l-25.945313-29.941406c5.949219-1.234375 11.09375-5.0625 13.976563-10.589844 3.539062-6.796875 3.007812-14.917969-1.382813-21.199219l-57.371094-82.023437c-1.867187-2.675782-4.929687-4.269532-8.191406-4.269532-3.265625 0-6.324218 1.59375-8.195312 4.269532l-57.371094 82.023437c-4.390625 6.28125-4.917969 14.402344-1.378906 21.195313 2.878906 5.53125 8.027344 9.359375 13.976562 10.59375l-10.257812 11.835937-85.730469-161.789062c-1.730469-3.285157-5.136719-5.339844-8.851563-5.339844-3.710937 0-7.117187 2.054687-8.847656 5.339844l-162.578125 306.835937c-.207031.394532-.386719.789063-.539062 1.195313-14.144531 10.753906-25.707031 25.011719-33.261719 41.851562-.003906.015625-.011719.027344-.019531.042969-6.25 13.949219-9.417969 28.824219-9.417969 44.21875 0 5.523438 4.476562 10 10 10h491.292969c5.09375 0 9.375-3.832031 9.9375-8.894531.511719-4.574219.769531-9.113281.769531-13.488281 0-10.242188-1.289062-20.417969-3.828125-30.25zm-23.476563-7.496094h-82.222656v-60.449219h11.277344c.328125.117187.660156.214844 1.007812.296875 32.023438 7.632812 57.859376 30.164062 69.9375 60.152344zm-122.226562-60.449219h20.003906v60.449219h-20.003906zm-12.34375-147.339844c-1.628906-3.558593-5.183594-5.84375-9.097656-5.84375h-17.332032c-.160156 0-.296874 0-.433593-.261719-.132813-.257812-.0625-.359374.03125-.492187l49.175781-70.308594 49.175781 70.308594c.09375.132813.167969.234375.03125.492187-.136719.261719-.273437.261719-.433593.261719h-10.628907c-.023437 0-.050781 0-.078125 0h-34.683594c-5.523437 0-10 4.476563-10 10 0 5.523438 4.476563 10 10 10h23.496094l36.925782 42.609375c.125.144532.199218.234375.074218.511719-.128906.28125-.25.28125-.445312.28125h-16.230469c-3.898437 0-7.441406 2.269531-9.078125 5.808594-1.632812 3.539062-1.066406 7.707031 1.464844 10.675781l44.699218 52.507812c.121094.144532.195313.230469.066407.507813-.128907.28125-.253907.28125-.441407.28125h-167.824218c-.1875 0-.3125 0-.441406-.28125-.128907-.277344-.054688-.363281.070312-.507813l41.703125-48.992187h45.863281c5.519532 0 10-4.476563 10-10s-4.480468-10-10-10h-66.714844c-.195312 0-.3125 0-.445312-.28125-.125-.277344-.050781-.367187.078125-.511719l39.914063-46.0625c2.5625-2.957031 3.164062-7.140625 1.539062-10.703125zm-135.460938-110.097656 65.953126 125.289063c-6.222657 4.371093-13.621094 6.71875-21.40625 6.71875-12.539063 0-24.179688-6.234376-31.136719-16.6875-2.476563-3.71875-6.167969-6.5-10.398438-7.839844-1.890625-.59375-3.847656-.898438-5.820312-.898438-6.515625 0-12.578125 3.269532-16.222657 8.742188-6.957031 10.449218-18.59375 16.6875-31.136718 16.6875-5.988282 0-11.871094-1.449219-17.136719-4.160156zm-76.671874 145.519531c8.132812 4.230469 17.238281 6.488282 26.503906 6.488282 18.992187 0 36.640625-9.320313 47.355468-24.96875 10.71875 15.648437 28.363282 24.96875 47.359376 24.96875 11.230468 0 21.9375-3.1875 31.117187-9.140626l5.027344 8.820313-1.800781 2.078125c-5.316407 6.132812-6.527344 14.53125-3.152344 21.914062 2.667968 5.851563 7.703125 9.945313 13.714844 11.398438l-7.449219 8.75c-16.890625-6.632812-34.726563-10-53.054688-10-27.519531 0-54.3125 7.734375-77.472656 22.363281-20.53125 12.96875-37.457031 30.816407-49.289063 51.898438-2.859374-.226563-5.714843-.339844-8.535156-.339844-11.816406 0-23.339844 1.929687-34.195312 5.546875zm353.976562 212.496094h-471.414062c.773437-6.894531 2.351562-13.621094 4.71875-20.128906h77.734374c5.519532 0 10-4.476563 10-10 0-5.523438-4.480468-10-10-10h-67.398437c18.640625-26.945313 51.367187-42.136719 85.464844-37.207032 4.265625.617188 8.449219-1.570312 10.375-5.429687 21.375-42.820313 64.355469-69.421875 112.164062-69.421875 13.46875 0 26.617188 2.101562 39.214844 6.257812l-9.871094 11.597657c-5.238281 6.152343-6.386719 14.527343-2.996093 21.859375 3.386718 7.335937 10.515624 11.894531 18.597656 11.894531h53.910156v60.449219h-109.828125c-5.523437 0-10 4.476562-10 10 0 5.523437 4.476563 10 10 10h257.796875c1.039062 5.832031 1.5625 11.773437 1.5625 17.746094 0 .789062-.011719 1.582031-.03125 2.382812zm0 0"/><path d="m91.382812 142.527344c-29.71875 0-53.894531-24.167969-53.894531-53.871094s24.175781-53.867188 53.894531-53.867188c29.714844 0 53.890626 24.164063 53.890626 53.867188s-24.175782 53.871094-53.890626 53.871094zm0-87.738282c-18.6875 0-33.894531 15.191407-33.894531 33.867188 0 18.679688 15.207031 33.871094 33.894531 33.871094s33.890626-15.191406 33.890626-33.871094c0-18.675781-15.203126-33.867188-33.890626-33.867188zm0 0"/><path d="m91.382812 31.949219c-5.523437 0-10-4.476563-10-10v-11.449219c0-5.523438 4.476563-10 10-10 5.523438 0 10 4.476562 10 10v11.449219c0 5.523437-4.476562 10-10 10zm0 0"/><path d="m91.382812 176.816406c-5.523437 0-10-4.476562-10-10v-11.453125c0-5.523437 4.476563-10 10-10 5.523438 0 10 4.476563 10 10v11.453125c0 5.523438-4.476562 10-10 10zm0 0"/><path d="m169.582031 98.65625h-11.457031c-5.523438 0-10-4.476562-10-10s4.476562-10 10-10h11.457031c5.523438 0 10 4.476562 10 10s-4.476562 10-10 10zm0 0"/><path d="m24.640625 98.65625h-11.457031c-5.523438 0-10-4.476562-10-10s4.476562-10 10-10h11.457031c5.519531 0 10 4.476562 10 10s-4.480469 10-10 10zm0 0"/><path d="m144.8125 45.257812c-2.5625 0-5.121094-.976562-7.074219-2.929687-3.902343-3.90625-3.902343-10.238281.003907-14.144531l9.171874-9.164063c3.902344-3.90625 10.238282-3.90625 14.140626 0 3.90625 3.90625 3.902343 10.238281-.003907 14.144531l-9.167969 9.164063c-1.953124 1.953125-4.515624 2.929687-7.070312 2.929687zm0 0"/><path d="m28.78125 161.222656c-2.558594 0-5.117188-.976562-7.070312-2.929687-3.90625-3.90625-3.902344-10.238281.003906-14.144531l9.171875-9.164063c3.902343-3.90625 10.234375-3.902344 14.140625.003906s3.902344 10.238281-.003906 14.140625l-9.171876 9.167969c-1.953124 1.949219-4.507812 2.925781-7.070312 2.925781zm0 0"/><path d="m153.980469 161.222656c-2.558594 0-5.117188-.976562-7.070313-2.925781l-9.167968-9.167969c-3.90625-3.902344-3.910157-10.234375-.003907-14.140625s10.234375-3.910156 14.140625-.003906l9.171875 9.167969c3.90625 3.902344 3.910157 10.234375.003907 14.140625-1.953126 1.953125-4.515626 2.929687-7.074219 2.929687zm0 0"/><path d="m37.953125 45.257812c-2.558594 0-5.117187-.976562-7.066406-2.925781l-9.171875-9.167969c-3.90625-3.902343-3.910156-10.234374-.003906-14.140624 3.902343-3.910157 10.234374-3.910157 14.140624-.003907l9.171876 9.167969c3.90625 3.902344 3.910156 10.234375.003906 14.140625-1.953125 1.953125-4.511719 2.929687-7.074219 2.929687zm0 0"/></svg>