<svg height="512pt" viewBox="-1 0 512 512.00003" width="512pt" xmlns="http://www.w3.org/2000/svg"><path d="m331.40625 193.273438c-39.855469 0-72.28125-32.429688-72.28125-72.292969s32.425781-72.292969 72.28125-72.292969c39.859375 0 72.285156 32.429688 72.285156 72.292969-.003906 39.863281-32.425781 72.292969-72.285156 72.292969zm0-124.585938c-28.828125 0-52.28125 23.460938-52.28125 52.292969s23.453125 52.292969 52.28125 52.292969 52.285156-23.460938 52.285156-52.292969c-.003906-28.832031-23.457031-52.292969-52.285156-52.292969zm0 0"/><path d="m331.40625 36.257812c-5.523438 0-10-4.476562-10-10v-16.257812c0-5.523438 4.476562-10 10-10s10 4.476562 10 10v16.257812c0 5.523438-4.476562 10-10 10zm0 0"/><path d="m331.40625 241.960938c-5.523438 0-10-4.476563-10-10v-16.257813c0-5.523437 4.476562-10 10-10s10 4.476563 10 10v16.257813c0 5.523437-4.476562 10-10 10zm0 0"/><path d="m442.371094 130.980469h-16.257813c-5.523437 0-10-4.476563-10-10 0-5.523438 4.476563-10 10-10h16.257813c5.523437 0 10 4.476562 10 10 0 5.523437-4.476563 10-10 10zm0 0"/><path d="m236.699219 130.980469h-16.257813c-5.523437 0-10-4.476563-10-10 0-5.523438 4.476563-10 10-10h16.257813c5.523437 0 10 4.476562 10 10 0 5.523437-4.476563 10-10 10zm0 0"/><path d="m407.21875 55.15625c-2.558594 0-5.117188-.976562-7.070312-2.929688-3.90625-3.902343-3.90625-10.234374 0-14.140624l13.015624-13.019532c3.902344-3.902344 10.234376-3.90625 14.140626 0s3.90625 10.238282.003906 14.144532l-13.015625 13.015624c-1.953125 1.953126-4.511719 2.929688-7.074219 2.929688zm0 0"/><path d="m242.578125 219.824219c-2.558594 0-5.117187-.976563-7.070313-2.929688-3.90625-3.90625-3.90625-10.238281 0-14.144531l13.015626-13.015625c3.902343-3.90625 10.234374-3.90625 14.140624 0 3.90625 3.902344 3.90625 10.234375 0 14.140625l-13.011718 13.019531c-1.953125 1.953125-4.511719 2.929688-7.074219 2.929688zm0 0"/><path d="m420.234375 219.824219c-2.558594 0-5.117187-.976563-7.070313-2.929688l-13.015624-13.019531c-3.90625-3.902344-3.90625-10.234375 0-14.140625 3.90625-3.902344 10.238281-3.902344 14.144531 0l13.011719 13.015625c3.90625 3.90625 3.90625 10.238281 0 14.144531-1.953126 1.953125-4.511719 2.929688-7.070313 2.929688zm0 0"/><path d="m255.59375 55.15625c-2.5625 0-5.121094-.976562-7.074219-2.929688l-13.011719-13.015624c-3.90625-3.90625-3.902343-10.238282 0-14.144532 3.90625-3.902344 10.238282-3.902344 14.144532.003906l13.011718 13.015626c3.90625 3.90625 3.90625 10.238281 0 14.140624-1.953124 1.953126-4.511718 2.929688-7.070312 2.929688zm0 0"/><path d="m507.011719 266.011719c-1.878907-1.875-4.421875-2.925781-7.074219-2.925781-86.621094.011718-168.929688 22.167968-238.328125 64.121093-47.96875-29.011719-101.777344-48.554687-158.636719-57.855469v-8.21875c46.578125-5.003906 82.96875-44.554687 82.96875-92.449218 0-24.976563-10.042968-48.8125-27.734375-66.246094.324219-2.664062.488281-5.355469.488281-8.050781 0-36.246094-29.484374-65.734375-65.726562-65.734375s-65.726562 29.488281-65.726562 65.734375c0 2.691406.167968 5.386719.492187 8.050781-17.691406 17.433594-27.734375 41.269531-27.734375 66.246094 0 47.894531 36.390625 87.445312 82.96875 92.449218v5.382813c-18.984375-2.277344-38.269531-3.429687-57.746094-3.429687-5.101562 0-10.296875.078124-15.4375.234374-5.398437.167969-9.691406 4.59375-9.691406 9.996094v228.683594c0 5.523438 4.476562 10 10 10h489.84375c5.523438 0 10-4.476562 10-10v-228.914062c0-2.652344-1.050781-5.199219-2.925781-7.074219zm-487.011719-97.328125c0-21.097656 9.132812-41.160156 25.050781-55.039063 2.738281-2.386719 3.96875-6.074219 3.207031-9.628906-.671874-3.144531-1.011718-6.382813-1.011718-9.628906 0-25.21875 20.511718-45.734375 45.726562-45.734375 25.210938 0 45.722656 20.515625 45.722656 45.734375 0 3.246093-.339843 6.484375-1.011718 9.628906-.757813 3.554687.46875 7.242187 3.207031 9.628906 15.921875 13.878907 25.050781 33.941407 25.050781 55.039063 0 36.851562-27.449218 67.410156-62.96875 72.300781v-38.582031c.894532-.460938 1.734375-1.066406 2.484375-1.816406l29.820313-29.828126c3.90625-3.902343 3.90625-10.234374 0-14.140624s-10.238282-3.90625-14.144532 0l-18.160156 18.167968v-91.402344c0-5.523437-4.480468-10-10-10-5.523437 0-10.003906 4.476563-10.003906 10v91.402344l-18.164062-18.164062c-3.902344-3.90625-10.234376-3.90625-14.140626-.003906-3.90625 3.90625-3.90625 10.238281 0 14.144531l29.820313 29.824219c.75.75 1.589844 1.355468 2.484375 1.820312v38.578125c-35.519531-4.886719-62.96875-35.449219-62.96875-72.300781zm.09375 114.425781c1.71875-.015625 3.429688-.023437 5.128906-.023437 19.496094 0 38.78125 1.203124 57.746094 3.582031v71.988281c0 5.523438 4.480469 10 10.003906 10 5.519532 0 10-4.476562 10-10v-69.027344c49.820313 8.523438 97.105469 25.28125 139.785156 49.691406-27.535156 18.792969-51.851562 40.464844-72.453124 64.585938-23.148438 27.113281-41.074219 56.71875-53.355469 88.09375h-96.855469zm469.84375.082031v45.003906c-62.65625 1.570313-122.648438 17.820313-174.078125 47.226563-51.195313 29.269531-90.546875 69.484375-114.171875 116.578125h-63.132812c51.625-121.128906 192.898437-205.375 351.382812-208.808594zm-265.601562 208.808594c47.304687-84.222656 151.050781-140.65625 265.605468-143.796875v45.019531c-82.507812 2.804688-157.839844 39.996094-199.675781 98.777344zm91.210937 0c39.445313-46.882812 103.945313-76.207031 174.390625-78.765625v78.765625zm0 0"/><path d="m92.96875 402.019531c-.648438 0-1.308594-.058593-1.949219-.1875-.640625-.132812-1.269531-.320312-1.871093-.570312-.609376-.25-1.191407-.5625-1.730469-.921875-.550781-.359375-1.058594-.777344-1.519531-1.238282-.460938-.460937-.878907-.980468-1.238282-1.519531-.363281-.550781-.671875-1.132812-.921875-1.730469-.25-.601562-.441406-1.230468-.570312-1.871093-.128907-.648438-.199219-1.300781-.199219-1.960938 0-.648437.070312-1.296875.199219-1.949219.128906-.640624.320312-1.269531.570312-1.867187.25-.601563.558594-1.183594.921875-1.730469.359375-.539062.777344-1.0625 1.238282-1.519531.460937-.460937.96875-.882813 1.519531-1.242187.539062-.359376 1.121093-.667969 1.730469-.917969.601562-.25 1.230468-.441407 1.871093-.570313 1.289063-.261718 2.621094-.261718 3.910157 0 .628906.128906 1.257812.320313 1.867187.570313.601563.25 1.183594.558593 1.722656.917969.550781.359374 1.058594.78125 1.519531 1.242187.460938.457031.878907.976563 1.25 1.519531.359376.550782.667969 1.128906.917969 1.730469.25.597656.441407 1.226563.570313 1.867187.132812.652344.191406 1.300782.191406 1.949219 0 .660157-.058594 1.3125-.191406 1.960938-.128906.640625-.320313 1.269531-.570313 1.871093-.25.601563-.558593 1.179688-.917969 1.730469-.371093.539063-.789062 1.058594-1.25 1.519531-.460937.460938-.96875.878907-1.519531 1.238282-.539062.359375-1.121093.671875-1.722656.921875-.609375.25-1.238281.4375-1.867187.570312-.652344.128907-1.3125.1875-1.960938.1875zm0 0"/></svg>